<svg xmlns="http://www.w3.org/2000/svg" width="512" height="512" viewBox="0 0 512 512">
  <defs>
    <linearGradient id="gradient" x1="0%" y1="0%" x2="100%" y2="100%">
      <stop offset="0%" style="stop-color:#f97316"/>
      <stop offset="100%" style="stop-color:#ea580c"/>
    </linearGradient>
  </defs>
  
  <!-- Background -->
  <rect width="512" height="512" rx="96" fill="#0a0a0a"/>
  
  <!-- Icon: Stylized "G" with fire/energy motif -->
  <g transform="translate(96, 80)">
    <!-- Main flame/energy shape -->
    <path 
      d="M160 0 C240 40, 280 120, 280 200 C280 280, 220 340, 160 340 C100 340, 40 280, 40 200 C40 160, 60 120, 100 80 C80 140, 100 180, 140 180 C180 180, 200 140, 180 80 C220 100, 240 140, 240 200 C240 260, 200 300, 160 300 C120 300, 80 260, 80 200 C80 140, 120 80, 160 0 Z"
      fill="url(#gradient)"
    />
    
    <!-- Inner highlight -->
    <path 
      d="M160 60 C200 90, 220 140, 220 180 C220 220, 190 250, 160 250 C130 250, 100 220, 100 180 C100 160, 110 140, 130 120 C120 150, 130 170, 150 170 C170 170, 180 150, 170 120 C190 130, 200 150, 200 180 C200 210, 180 230, 160 230 C140 230, 120 210, 120 180 C120 150, 140 120, 160 60 Z"
      fill="#fbbf24"
      opacity="0.8"
    />
  </g>
</svg>
